<svg viewBox="0 0 85 85" fill="none" xmlns="http://www.w3.org/2000/svg" id="Yawning-Face-Flat--Streamline-Fluent-Emoji.svg" height="85" width="85"><desc>Yawning Face Flat Streamline Emoji: https://streamlinehq.com</desc><path d="M42.497078125 79.68165625c24.794500000000003 0 37.184578125 -16.648046875 37.184578125 -37.184578125C79.68165625 21.9605734375 67.291578125 5.3125 42.497078125 5.3125 17.7023921875 5.3125 5.3125 21.9605734375 5.3125 42.497078125c0 20.53653125 12.389892187500001 37.184578125 37.184578125 37.184578125Z" fill="#ffb02e" stroke-width="1"></path><path fill="#bb1d80" d="M26.5625 55.78125a15.9375 15.9375 0 1 0 31.875 0 15.9375 15.9375 0 1 0 -31.875 0" stroke-width="1"></path><path fill-rule="evenodd" clip-rule="evenodd" d="M35.063296875 47.650203125c0.8531875 -1.289078125 0.711875 -3.042203125 -0.42340625 -4.17775 -1.29678125 -1.2965156249999998 -3.3989375 -1.2965156249999998 -4.69571875 0l-8.277459375000001 8.27740625V49.140625c0 -1.8338750000000001 -1.48654375 -3.3203125 -3.3203125 -3.3203125 -1.8337421875 0 -3.3180546875 1.486171875 -3.41413125 3.317390625 -0.2280125 4.3466875 -0.9180265624999999 10.153515624999999 -2.56243125 12.620109375 -2.65625 3.984375 -2.6564890625 11.953125 2.65625 15.9375 10.136595312499999 7.6021875 22.136443749999998 -5.361109375 23.218865625 -6.569703125l7.019937499999999 -7.019937499999999c1.2965156249999998 -1.29678125 1.2965156249999998 -3.3989375 0 -4.69571875 -0.669109375 -0.669109375 -1.55284375 -0.9929062500000001 -2.429671875 -0.9713906250000001l0.940046875 -0.8226406249999999c1.3801875 -1.20753125 1.51990625 -3.305171875 0.312375 -4.68509375 -1.1079218750000002 -1.266234375 -2.9649062500000003 -1.488296875 -4.3296874999999995 -0.584109375l2.8506875 -2.850421875c1.2965156249999998 -1.29678125 1.2965156249999998 -3.3989375 0 -4.69571875 -1.29678125 -1.2965156249999998 -3.3989375 -1.2965156249999998 -4.69571875 0l-2.849625 2.849625Z" fill="#ff822d" stroke-width="1"></path><path fill-rule="evenodd" clip-rule="evenodd" d="M20.9695 33.062609375c0.9418 -1.883546875 2.948703125 -3.483140625 5.4368125 -4.312421875 2.488109375 -0.82928125 5.053515625 -0.75384375 6.937062500000001 0.187796875 1.3121875 0.65609375 2.90753125 0.1243125 3.5636249999999996 -1.187875 0.65609375 -1.3121343749999999 0.1243125 -2.9076640625 -1.187875 -3.56373125 -3.428953125 -1.7144234374999998 -7.504437500000001 -1.63890625 -10.992757812499999 -0.47610625 -3.488453125 1.1628265625 -6.79405 3.547634375 -8.5085 6.9765875 -0.6560671874999999 1.3121875 -0.12420625 2.907796875 1.187928125 3.5636249999999996 1.3121078125 0.65609375 2.9076640625 0.1243125 3.5637046875000005 -1.187875Zm43.060734374999996 0c-0.9416406249999999 -1.883546875 -2.9484375000000003 -3.483140625 -5.4368125 -4.312421875 -2.488109375 -0.82928125 -5.05325 -0.75384375 -6.936796875 0.187796875 -1.3121875 0.65609375 -2.907796875 0.1243125 -3.5638906249999995 -1.187875 -0.655828125 -1.3121343749999999 -0.124046875 -2.9076640625 1.188140625 -3.56373125 3.428953125 -1.7144234374999998 7.504171875 -1.63890625 10.992625 -0.47610625 3.488453125 1.1628265625 6.7941562499999995 3.547634375 8.5085 6.9765875 0.65609375 1.3121875 0.1243125 2.907796875 -1.187875 3.5636249999999996 -1.3121875 0.65609375 -2.907796875 0.1243125 -3.5638906249999995 -1.187875Z" fill="#402a32" stroke-width="1"></path></svg>