<svg width="85" height="52" viewBox="0 0 85 52" fill="none" xmlns="http://www.w3.org/2000/svg">
<path d="M0 9.14215C0 4.5116 3.81172 0.746826 8.5 0.746826H34H40.375H42.5H76.5C81.1883 0.746826 85 4.5116 85 9.14215V42.7234C85 47.354 81.1883 51.1187 76.5 51.1187H42.5H40.375H34H8.5C3.81172 51.1187 0 47.354 0 42.7234V9.14215ZM42.5 9.14215V42.7234H76.5V9.14215H42.5ZM23.6805 15.4255C23.2555 14.481 22.2992 13.8645 21.25 13.8645C20.2008 13.8645 19.2445 14.481 18.8195 15.4255L10.3195 34.315C9.72187 35.6399 10.3328 37.1878 11.6742 37.7781C13.0156 38.3683 14.5828 37.7649 15.1805 36.4401L16.3625 33.8034H26.1375L27.3195 36.4401C27.9172 37.7649 29.4844 38.3552 30.8258 37.7781C32.1672 37.2009 32.7648 35.6399 32.1805 34.315L23.6805 15.4255ZM21.25 22.9419L23.7734 28.5563H18.7266L21.25 22.9419ZM59.5 13.8645C60.9609 13.8645 62.1562 15.0451 62.1562 16.488V17.0128H68H70.125C71.5859 17.0128 72.7812 18.1933 72.7812 19.6363C72.7812 21.0792 71.5859 22.2598 70.125 22.2598H69.8594L69.6469 22.8501C68.4648 26.0508 66.6719 28.963 64.3875 31.4291C64.507 31.5078 64.6266 31.5734 64.7461 31.639L67.2562 33.1213C68.518 33.869 68.9164 35.4825 68.1727 36.7155C67.4289 37.9486 65.782 38.3552 64.5336 37.6206L62.0234 36.1383C61.4258 35.7842 60.8547 35.4169 60.2836 35.0233C58.8758 36.0072 57.375 36.8598 55.768 37.5682L55.2898 37.7781C53.9484 38.3683 52.3812 37.7649 51.7836 36.4401C51.1859 35.1152 51.7969 33.5673 53.1383 32.977L53.6164 32.7671C54.4664 32.3867 55.2898 31.9669 56.0734 31.4816L54.4531 29.8812C53.4172 28.858 53.4172 27.1921 54.4531 26.1689C55.4891 25.1457 57.1758 25.1457 58.2117 26.1689L60.1508 28.0841L60.2172 28.1497C61.8641 26.4313 63.2055 24.4374 64.175 22.2467L59.5 22.2598H49.9375C48.4766 22.2598 47.2812 21.0792 47.2812 19.6363C47.2812 18.1933 48.4766 17.0128 49.9375 17.0128H56.8438V16.488C56.8438 15.0451 58.0391 13.8645 59.5 13.8645Z" fill="#60A5FA"/>
</svg>
