<svg width="93" height="76" viewBox="0 0 93 76" fill="none" xmlns="http://www.w3.org/2000/svg">
<g filter="url(#filter0_d_87_171)">
<rect x="10.4761" y="14.7435" width="71.2381" height="41.5768" fill="white"/>
<path d="M4 17.1421C4 12.5116 7.81172 8.74683 12.5 8.74683H38H44.375H46.5H80.5C85.1883 8.74683 89 12.5116 89 17.1421V50.7234C89 55.354 85.1883 59.1187 80.5 59.1187H46.5H44.375H38H12.5C7.81172 59.1187 4 55.354 4 50.7234V17.1421ZM46.5 17.1421V50.7234H80.5V17.1421H46.5ZM27.6805 23.4255C27.2555 22.481 26.2992 21.8645 25.25 21.8645C24.2008 21.8645 23.2445 22.481 22.8195 23.4255L14.3195 42.315C13.7219 43.6399 14.3328 45.1878 15.6742 45.7781C17.0156 46.3683 18.5828 45.7649 19.1805 44.4401L20.3625 41.8034H30.1375L31.3195 44.4401C31.9172 45.7649 33.4844 46.3552 34.8258 45.7781C36.1672 45.2009 36.7648 43.6399 36.1805 42.315L27.6805 23.4255ZM25.25 30.9419L27.7734 36.5563H22.7266L25.25 30.9419ZM63.5 21.8645C64.9609 21.8645 66.1562 23.0451 66.1562 24.488V25.0128H72H74.125C75.5859 25.0128 76.7812 26.1933 76.7812 27.6363C76.7812 29.0792 75.5859 30.2598 74.125 30.2598H73.8594L73.6469 30.8501C72.4648 34.0508 70.6719 36.963 68.3875 39.4291C68.507 39.5078 68.6266 39.5734 68.7461 39.639L71.2562 41.1213C72.518 41.869 72.9164 43.4825 72.1727 44.7155C71.4289 45.9486 69.782 46.3552 68.5336 45.6206L66.0234 44.1383C65.4258 43.7842 64.8547 43.4169 64.2836 43.0233C62.8758 44.0072 61.375 44.8598 59.768 45.5682L59.2898 45.7781C57.9484 46.3683 56.3812 45.7649 55.7836 44.4401C55.1859 43.1152 55.7969 41.5673 57.1383 40.977L57.6164 40.7671C58.4664 40.3867 59.2898 39.9669 60.0734 39.4816L58.4531 37.8812C57.4172 36.858 57.4172 35.1921 58.4531 34.1689C59.4891 33.1457 61.1758 33.1457 62.2117 34.1689L64.1508 36.0841L64.2172 36.1497C65.8641 34.4313 67.2055 32.4374 68.175 30.2467L63.5 30.2598H53.9375C52.4766 30.2598 51.2812 29.0792 51.2812 27.6363C51.2812 26.1933 52.4766 25.0128 53.9375 25.0128H60.8438V24.488C60.8438 23.0451 62.0391 21.8645 63.5 21.8645Z" fill="#60A5FA"/>
</g>
<defs>
<filter id="filter0_d_87_171" x="0" y="0.351562" width="93" height="75.1626" filterUnits="userSpaceOnUse" color-interpolation-filters="sRGB">
<feFlood flood-opacity="0" result="BackgroundImageFix"/>
<feColorMatrix in="SourceAlpha" type="matrix" values="0 0 0 0 0 0 0 0 0 0 0 0 0 0 0 0 0 0 127 0" result="hardAlpha"/>
<feOffset dy="4"/>
<feGaussianBlur stdDeviation="2"/>
<feComposite in2="hardAlpha" operator="out"/>
<feColorMatrix type="matrix" values="0 0 0 0 0 0 0 0 0 0 0 0 0 0 0 0 0 0 0.25 0"/>
<feBlend mode="normal" in2="BackgroundImageFix" result="effect1_dropShadow_87_171"/>
<feBlend mode="normal" in="SourceGraphic" in2="effect1_dropShadow_87_171" result="shape"/>
</filter>
</defs>
</svg>
